<?xml version="1.0" encoding="UTF-8"?>
<svg width="18px" height="19px" viewBox="0 0 18 19" version="1.1" xmlns="http://www.w3.org/2000/svg" xmlns:xlink="http://www.w3.org/1999/xlink">
    <title>设置-选中</title>
    <g id="页面-1" stroke="none" stroke-width="1" fill="none" fill-rule="evenodd">
        <g id="侧边" transform="translate(-312.000000, -304.000000)">
            <g id="设置-选中" transform="translate(312.000000, 304.984302)">
                <rect id="矩形" fill="#FFFFFF" opacity="0" x="0" y="0" width="18" height="18"></rect>
                <g id="shezhi-4" transform="translate(1.000000, 1.339020)" fill="currentColor" fill-rule="nonzero">
                    <path d="M12.9620565,1.62930851 C12.902815,2.14814971 12.8684166,2.49499936 12.8235077,2.83993798 C12.7356009,3.52790422 13.0260756,3.93208438 13.7044867,4.0333683 C14.0962453,4.09165433 14.4908703,4.12700815 14.8835844,4.1766946 C15.1826586,4.21491495 15.3603832,4.36779633 15.4272688,4.68024766 C15.5963939,5.46949782 15.7884511,6.25301492 15.9728643,7.03939855 C16.051216,7.37287107 15.9652202,7.62225883 15.6451248,7.79233937 C15.3804489,7.93375465 15.1453938,8.13441147 14.8759403,8.26340514 C14.1889296,8.59114461 14.0026054,9.3287973 14.4899148,9.9135686 C14.6810166,10.1428907 14.8100102,10.4228547 14.9820018,10.6693759 C15.1711925,10.9407404 15.1692815,11.1949057 14.9600251,11.450982 C14.4287623,12.1007279 13.9194762,12.7705395 13.3528595,13.3877981 C13.2114443,13.541635 12.8731942,13.6008765 12.6467386,13.5674337 C12.2932004,13.5148807 11.9587724,13.3428892 11.6138338,13.2263171 C10.9507108,13.0027281 10.485378,13.2320502 10.2445899,13.8980397 C10.1691047,14.1063406 10.0917085,14.3146415 10.0171788,14.5229424 C9.73148171,15.3188811 9.73148171,15.3188811 8.86579086,15.3188811 C8.16826954,15.3188811 7.47170373,15.309326 6.77418241,15.3217476 C6.41968869,15.3284362 6.21138781,15.1774658 6.10437084,14.8449488 C5.99830937,14.5133873 5.87313774,14.1875588 5.75274365,13.8607749 C5.5262881,13.2454273 5.02273503,13.0084611 4.39592135,13.2196286 C4.38063321,13.2244061 4.36534507,13.2291836 4.35101244,13.2339612 C2.63491889,13.8359316 3.04196558,13.874152 1.91159883,12.5307068 C1.62685725,12.1915012 1.36313686,11.8331855 1.07743977,11.4949354 C0.840473624,11.2130604 0.811808365,10.9388294 1.02870883,10.6330666 C1.22076607,10.3617022 1.39944619,10.0807826 1.58003733,9.80177408 C1.94695265,9.23324643 1.8303806,8.71631625 1.25420887,8.35226745 C0.973289328,8.17454284 0.700013851,7.98153009 0.403806167,7.83055972 C0.0235137197,7.63659146 -0.0567490078,7.3432503 0.0340243149,6.96104684 C0.2088824,6.22148313 0.390429045,5.48383045 0.5509545,4.74140022 C0.62930621,4.37830693 0.826140995,4.19676028 1.19592285,4.1652285 C1.58959241,4.13178569 1.98326198,4.08209924 2.37406502,4.02094669 C2.96456938,3.92826235 3.27415418,3.50210549 3.20058002,2.91160113 C3.15567111,2.55041886 3.11745076,2.18828108 3.06776431,1.8270988 C3.02285541,1.49935933 3.15280458,1.2748148 3.44710125,1.13817706 C4.20768614,0.783683346 4.97113756,0.434922685 5.72885593,0.0746959199 C6.03270769,-0.0695858879 6.28018443,0.00303277035 6.50472896,0.22471078 C6.76367181,0.480787101 7.01688161,0.742596474 7.27869098,0.996761777 C7.73637963,1.4410733 8.28388609,1.43629576 8.74539677,0.986251182 C9.00625064,0.732085878 9.23270619,0.430145142 9.52891387,0.228532814 C9.7190601,0.0995391451 10.0506216,0.00589929633 10.2445899,0.0832954978 C11.0367065,0.400524373 11.8116241,0.769350716 12.5683869,1.16397579 C12.7690437,1.26908175 12.8856158,1.53471315 12.9620565,1.62930851 Z M10.589567,7.64041349 C10.5971726,6.22148313 9.46489479,5.07200621 8.04118689,5.05098502 C6.60123534,5.02900832 5.4278707,6.17944075 5.42499871,7.61652578 C5.42213765,9.01347944 6.54677135,10.1314246 7.96856823,10.1467127 C9.41234182,10.1620008 10.5818844,9.04405572 10.589567,7.64041349 Z" id="形状"></path>
                </g>
            </g>
        </g>
    </g>
</svg>